<?xml version="1.0" encoding="UTF-8" standalone="no"?><!DOCTYPE svg PUBLIC "-//W3C//DTD SVG 1.1//EN" "http://www.w3.org/Graphics/SVG/1.1/DTD/svg11.dtd"><svg width="100%" height="100%" viewBox="0 0 6067 2271" version="1.1" xmlns="http://www.w3.org/2000/svg" xmlns:xlink="http://www.w3.org/1999/xlink" xml:space="preserve" xmlns:serif="http://www.serif.com/" style="fill-rule:evenodd;clip-rule:evenodd;stroke-linejoin:round;stroke-miterlimit:2;"><rect id="bg" x="0" y="0" width="6062.68" height="2270.29" style="fill:none;"/><clipPath id="_clip1"><rect x="0" y="0" width="6062.68" height="2270.29"/></clipPath><g clip-path="url(#_clip1)"><path d="M-8.756,2342.98l-0,-2342.72l1213.54,-0l-0,-0.098l1217.61,-0l-0,0.026l1213.38,-0l-0,0.114l1209.37,-0l0,-0.065l1217.61,0l-0,2342.72l-1213.54,0l0,0.065l-1217.61,0l0,-0.114l-1213.44,-0l0,-0.026l-1209.32,-0l0,0.098l-1217.61,0Zm2426.92,-2338.65c-9.438,0 -1209.22,0 -1209.22,0l0,287.4c0,0 1199.78,0 1209.22,0l0,-287.4Zm1213.44,0.026c-0,0 -1199.78,0 -1209.22,0l-0,287.401c9.442,-0 1209.22,-0 1209.22,-0l-0,-287.401Zm4.166,287.515c77.472,-0 1209.28,-0 1209.28,-0l-0,-287.4c-0,-0 -1209.27,-0 -1209.28,-0l0,287.4Zm2422.81,876.784l-0,-285.678c-0,0 -1209.27,0 -1209.27,0l-0,285.678l1209.27,0Zm-1209.27,5.889l0,285.678c74.866,0 1134.41,0 1209.27,0l-0,-285.678l-1209.27,0Zm-1213.54,1164.31c0,0 1209.28,0 1209.28,0.001l-0,-287.401c-0,0 -1131.8,0 -1209.28,0l0,287.4Zm-1213.38,-0.114c75.337,0 1134.37,0 1209.22,0l-0,-287.4c-0,0 -1131.26,0 -1209.22,-0l-0,287.4Zm-4.223,-287.426c-9.129,-0 -1132.06,-0 -1209.22,-0l0,287.4c74.848,0 1133.88,0 1209.22,0l0,-287.4Zm-2422.76,-876.751l-0,285.678c77.47,0 1209.27,0 1209.27,0l-0,-285.678l-1209.27,0Zm1209.27,-5.889l-0,-285.678c-0,0 -1131.8,0 -1209.27,0l-0,285.678l1209.27,0Zm1213.48,-871.633c-9.438,0 -1209.22,0 -1209.22,0l0,287.4c77.156,0 1200.09,0 1209.22,0.001l0,-287.401Zm1217.61,287.541c0,-0 1209.28,-0 1209.28,-0l-0,-287.4c-0,-0 -1209.27,-0 -1209.28,-0l0,287.4Zm0,293.141c0,0 1209.28,0 1209.28,0l-0,-287.4c-0,0 -1209.27,0 -1209.28,-0l0,287.4Zm1209.28,290.993l-0,-285.678c-0,0 -1209.27,0 -1209.28,0l0,285.564l0.001,0.114l1209.27,0Zm-1209.28,291.567c77.472,-0 1209.28,-0 1209.28,0l-0,-285.678l-1209.27,-0l-0.001,285.678Zm0,292.715c77.472,0 1209.28,0 1209.28,0l-0,-287.4c-0,-0 -1209.27,-0 -1209.28,-0l0,287.4Zm0,293.141c77.472,0 1209.28,0 1209.28,0l-0,-287.4c-74.867,0 -1134.41,0 -1209.28,0l0,287.4Zm-1217.61,-287.54c-75.337,-0 -1134.37,-0 -1209.22,-0l0,287.4c0,0 1199.78,0 1209.22,0l0,-287.4Zm0,-293.142c-75.337,0 -1134.37,0 -1209.22,0l0,287.401c0,-0 1199.78,-0 1209.22,-0l0,-287.401Zm-1209.22,-290.992l0,285.678c0,-0 1199.78,-0 1209.22,-0l0,-285.678l-1209.22,-0Zm1209.22,-291.567c-9.438,-0 -1209.22,-0 -1209.22,-0l0,285.678l1209.22,-0l0,-285.678Zm0,-292.715c-9.438,-0 -1209.22,-0 -1209.22,-0l0,287.4c0,-0 1199.78,-0 1209.22,-0l0,-287.4Zm1213.44,-5.715l-0,-287.401c-0,0 -1199.78,0 -1209.22,0l-0,287.401c9.442,-0 1209.22,-0 1209.22,-0Zm-0,293.141l-0,-287.4c-0,-0 -1199.78,-0 -1209.22,-0l-0,287.4c9.442,0 1209.22,0 1209.22,0Zm-0.001,290.993l0.001,-285.678c-0,-0 -1199.78,-0 -1209.22,-0l-0,285.678l1209.22,-0Zm0.001,291.567l-0,-285.564l-0.001,-0.114l-1209.22,-0l-0,285.678c75.337,-0 1134.37,-0 1209.22,-0Zm-0,292.715l-0,-287.4c-74.85,-0 -1133.88,-0 -1209.22,-0l-0,287.4c9.442,-0 1209.22,-0 1209.22,-0Zm-0,293.141l-0,-287.4c-0,0 -1199.78,-0 -1209.22,-0l-0,287.4c9.442,0 1209.22,0 1209.22,0Zm-2426.93,-2041.6c-0,-0 -1209.27,-0 -1209.27,-0l-0,287.4c-0,-0 1209.27,-0 1209.27,-0l-0,-287.4Zm4853.9,-0.023c-0,-0 -1209.27,-0 -1209.27,-0l0,287.4c0,0 1209.27,0 1209.27,0l-0,-287.4Zm-0,292.715c-0,-0 -1209.27,-0 -1209.27,-0l-0,287.4c-0,0 1209.27,0 1209.27,0l-0,-287.4Zm-0,293.141c-0,0 -1209.27,0 -1209.27,0l0,287.4c0,0 1209.27,0 1209.27,0.001l-0,-287.401Zm-0,875.275c-0,0 -1209.27,0 -1209.27,-0l-0,287.4c-0,0 1209.27,0 1209.27,0l-0,-287.4Zm-0,293.141c-74.867,0 -1134.41,0 -1209.27,0l0,287.401c0,-0 1209.27,-0 1209.27,-0l-0,-287.401Zm-0,292.715c-0,0 -1209.27,0 -1209.27,0l-0,287.401c-0,-0 1209.27,-0 1209.27,-0l-0,-287.401Zm-4853.9,0.023c-0,0 -1209.27,0 -1209.27,0l-0,287.401c-0,-0 1209.27,-0 1209.27,-0l-0,-287.401Zm-0,-292.715c-0,0 -1209.27,0 -1209.27,0l-0,287.401c77.47,-0 1209.27,-0 1209.27,-0l-0,-287.401Zm-0,-293.141c-0,-0 -1209.27,-0 -1209.27,-0l-0,287.4c-0,0 1209.27,0 1209.27,0l-0,-287.4Zm-0,-875.275c-0,0 -1209.27,0 -1209.27,0l-0,287.4c77.47,0 1209.27,0 1209.27,0l-0,-287.4Zm-0,-293.141c-0,-0 -1209.27,-0 -1209.27,-0l-0,287.4c-0,-0 1209.27,-0 1209.27,-0l-0,-287.4Z" style="fill:url(#_Linear2);"/><rect x="-8.756" y="292.973" width="1217.61" height="295.734" style="fill:#f5f3ff;fill-opacity:0.61;"/><rect x="2418.17" y="0.186" width="1217.61" height="295.734" style="fill:#f5f3ff;fill-opacity:0.61;"/><rect x="2418.17" y="878.757" width="1217.61" height="295.734" style="fill:#f5f3ff;fill-opacity:0.61;"/><rect x="1204.79" y="1461.29" width="1217.61" height="295.734" style="fill:#f5f3ff;fill-opacity:0.61;"/><rect x="4845.15" y="292.95" width="1217.61" height="295.734" style="fill:#f5f3ff;fill-opacity:0.61;"/></g><defs><linearGradient id="_Linear2" x1="0" y1="0" x2="1" y2="0" gradientUnits="userSpaceOnUse" gradientTransform="matrix(1.34348e-13,2194.06,-2194.06,1.34348e-13,1952.38,56.1741)"><stop offset="0" style="stop-color:#ebe9fe;stop-opacity:1"/><stop offset="0.51" style="stop-color:#ebe9fe;stop-opacity:0.75"/><stop offset="1" style="stop-color:#ede9fe;stop-opacity:0"/></linearGradient></defs></svg>